{
    "asset" : {
        "generator" : "Khronos glTF Blender I/O v1.8.19",
        "version" : "2.0"
    },
    "scene" : 0,
    "scenes" : [
        {
            "name" : "Scene",
            "nodes" : [
                0
            ]
        }
    ],
    "nodes" : [
        {
            "mesh" : 0,
            "name" : "13499_Balloon_Cluster_v1_L2",
            "rotation" : [
                0.7071068286895752,
                0,
                0,
                0.7071067094802856
            ],
            "scale" : [
                0.10788100957870483,
                0.10788100957870483,
                0.10788100957870483
            ]
        }
    ],
    "materials" : [
        {
            "doubleSided" : true,
            "name" : "13499_Balloon_Cluster_yellow",
            "pbrMetallicRoughness" : {
                "baseColorFactor" : [
                    1,
                    1,
                    1,
                    0.9700000286102295
                ],
                "baseColorTexture" : {
                    "index" : 0
                },
                "metallicFactor" : 0,
                "roughnessFactor" : 0.8387548327445984
            }
        },
        {
            "doubleSided" : true,
            "name" : "13499_Balloon_Cluster_pink",
            "pbrMetallicRoughness" : {
                "baseColorFactor" : [
                    1,
                    1,
                    1,
                    0.9700000286102295
                ],
                "baseColorTexture" : {
                    "index" : 1
                },
                "metallicFactor" : 0,
                "roughnessFactor" : 0.8267949223518372
            }
        },
        {
            "doubleSided" : true,
            "name" : "13499_Balloon_Cluster_rope",
            "pbrMetallicRoughness" : {
                "baseColorTexture" : {
                    "index" : 2
                },
                "metallicFactor" : 0,
                "roughnessFactor" : 0.7763931751251221
            }
        }
    ],
    "meshes" : [
        {
            "name" : "13499_Balloon_Cluster_v1_L2",
            "primitives" : [
                {
                    "attributes" : {
                        "POSITION" : 0,
                        "NORMAL" : 1,
                        "TEXCOORD_0" : 2
                    },
                    "indices" : 3,
                    "material" : 0
                },
                {
                    "attributes" : {
                        "POSITION" : 4,
                        "NORMAL" : 5,
                        "TEXCOORD_0" : 6
                    },
                    "indices" : 7,
                    "material" : 1
                },
                {
                    "attributes" : {
                        "POSITION" : 8,
                        "NORMAL" : 9,
                        "TEXCOORD_0" : 10
                    },
                    "indices" : 11,
                    "material" : 2
                }
            ]
        }
    ],
    "textures" : [
        {
            "sampler" : 0,
            "source" : 0
        },
        {
            "sampler" : 0,
            "source" : 1
        },
        {
            "sampler" : 0,
            "source" : 2
        }
    ],
    "images" : [
        {
            "bufferView" : 4,
            "mimeType" : "image/jpeg",
            "name" : "13499_Balloon_Cluster_diffuse_ballon_yellow"
        },
        {
            "bufferView" : 9,
            "mimeType" : "image/jpeg",
            "name" : "13499_Balloon_Cluster_diffuse_ballon"
        },
        {
            "bufferView" : 14,
            "mimeType" : "image/jpeg",
            "name" : "13499_Balloon_Cluster_diffuse_rope"
        }
    ],
    "accessors" : [
        {
            "bufferView" : 0,
            "componentType" : 5126,
            "count" : 11600,
            "max" : [
                10.16469955444336,
                51.840301513671875,
                13.561300277709961
            ],
            "min" : [
                -14.809599876403809,
                23.065399169921875,
                -14.27970027923584
            ],
            "type" : "VEC3"
        },
        {
            "bufferView" : 1,
            "componentType" : 5126,
            "count" : 11600,
            "type" : "VEC3"
        },
        {
            "bufferView" : 2,
            "componentType" : 5126,
            "count" : 11600,
            "type" : "VEC2"
        },
        {
            "bufferView" : 3,
            "componentType" : 5123,
            "count" : 65280,
            "type" : "SCALAR"
        },
        {
            "bufferView" : 5,
            "componentType" : 5126,
            "count" : 8700,
            "max" : [
                14.825200080871582,
                44.820899963378906,
                13.772100448608398
            ],
            "min" : [
                -10.454000473022461,
                30.232999801635742,
                -13.726400375366211
            ],
            "type" : "VEC3"
        },
        {
            "bufferView" : 6,
            "componentType" : 5126,
            "count" : 8700,
            "type" : "VEC3"
        },
        {
            "bufferView" : 7,
            "componentType" : 5126,
            "count" : 8700,
            "type" : "VEC2"
        },
        {
            "bufferView" : 8,
            "componentType" : 5123,
            "count" : 48960,
            "type" : "SCALAR"
        },
        {
            "bufferView" : 10,
            "componentType" : 5126,
            "count" : 21700,
            "max" : [
                8.32289981842041,
                37.807098388671875,
                7.220900058746338
            ],
            "min" : [
                -8.32289981842041,
                0,
                -7.220900058746338
            ],
            "type" : "VEC3"
        },
        {
            "bufferView" : 11,
            "componentType" : 5126,
            "count" : 21700,
            "type" : "VEC3"
        },
        {
            "bufferView" : 12,
            "componentType" : 5126,
            "count" : 21700,
            "type" : "VEC2"
        },
        {
            "bufferView" : 13,
            "componentType" : 5123,
            "count" : 101976,
            "type" : "SCALAR"
        }
    ],
    "bufferViews" : [
        {
            "buffer" : 0,
            "byteLength" : 139200,
            "byteOffset" : 0
        },
        {
            "buffer" : 0,
            "byteLength" : 139200,
            "byteOffset" : 139200
        },
        {
            "buffer" : 0,
            "byteLength" : 92800,
            "byteOffset" : 278400
        },
        {
            "buffer" : 0,
            "byteLength" : 130560,
            "byteOffset" : 371200
        },
        {
            "buffer" : 0,
            "byteLength" : 84013,
            "byteOffset" : 501760
        },
        {
            "buffer" : 0,
            "byteLength" : 104400,
            "byteOffset" : 585776
        },
        {
            "buffer" : 0,
            "byteLength" : 104400,
            "byteOffset" : 690176
        },
        {
            "buffer" : 0,
            "byteLength" : 69600,
            "byteOffset" : 794576
        },
        {
            "buffer" : 0,
            "byteLength" : 97920,
            "byteOffset" : 864176
        },
        {
            "buffer" : 0,
            "byteLength" : 83793,
            "byteOffset" : 962096
        },
        {
            "buffer" : 0,
            "byteLength" : 260400,
            "byteOffset" : 1045892
        },
        {
            "buffer" : 0,
            "byteLength" : 260400,
            "byteOffset" : 1306292
        },
        {
            "buffer" : 0,
            "byteLength" : 173600,
            "byteOffset" : 1566692
        },
        {
            "buffer" : 0,
            "byteLength" : 203952,
            "byteOffset" : 1740292
        },
        {
            "buffer" : 0,
            "byteLength" : 278067,
            "byteOffset" : 1944244
        }
    ],
    "samplers" : [
        {
            "magFilter" : 9729,
            "minFilter" : 9987
        }
    ],
    "buffers" : [
        {
            "byteLength" : 2222312,
            "uri" : "data:application/octet-stream;base64,"
        }
    ]
}
