{
    "asset" : {
        "generator" : "Khronos glTF Blender I/O v1.8.19",
        "version" : "2.0"
    },
    "scene" : 0,
    "scenes" : [
        {
            "name" : "Scene",
            "nodes" : [
                0
            ]
        }
    ],
    "nodes" : [
        {
            "mesh" : 0,
            "name" : "Pokeball_Obj",
            "rotation" : [
                0.7071068286895752,
                0,
                0,
                0.7071067094802856
            ],
            "scale" : [
                0.27482151985168457,
                0.27482151985168457,
                0.27482151985168457
            ]
        }
    ],
    "materials" : [
        {
            "doubleSided" : true,
            "name" : "Mat_5",
            "pbrMetallicRoughness" : {
                "baseColorFactor" : [
                    0.800000011920929,
                    0.800000011920929,
                    0.800000011920929,
                    1
                ],
                "metallicFactor" : 0,
                "roughnessFactor" : 0.5
            }
        },
        {
            "doubleSided" : true,
            "name" : "Mat",
            "pbrMetallicRoughness" : {
                "baseColorFactor" : [
                    0.800000011920929,
                    0.800000011920929,
                    0.800000011920929,
                    1
                ],
                "metallicFactor" : 0,
                "roughnessFactor" : 0.5
            }
        },
        {
            "doubleSided" : true,
            "name" : "Mat_4",
            "pbrMetallicRoughness" : {
                "baseColorFactor" : [
                    0.800000011920929,
                    0.800000011920929,
                    0.800000011920929,
                    1
                ],
                "metallicFactor" : 0,
                "roughnessFactor" : 0.5
            }
        },
        {
            "doubleSided" : true,
            "name" : "Mat_1",
            "pbrMetallicRoughness" : {
                "baseColorFactor" : [
                    0.800000011920929,
                    0.800000011920929,
                    0.800000011920929,
                    1
                ],
                "metallicFactor" : 0,
                "roughnessFactor" : 0.5
            }
        },
        {
            "doubleSided" : true,
            "name" : "Mat_2",
            "pbrMetallicRoughness" : {
                "baseColorFactor" : [
                    0.800000011920929,
                    0.800000011920929,
                    0.800000011920929,
                    1
                ],
                "metallicFactor" : 0,
                "roughnessFactor" : 0.5
            }
        },
        {
            "doubleSided" : true,
            "name" : "Mat_3",
            "pbrMetallicRoughness" : {
                "baseColorFactor" : [
                    0.800000011920929,
                    0.800000011920929,
                    0.800000011920929,
                    1
                ],
                "metallicFactor" : 0,
                "roughnessFactor" : 0.5
            }
        }
    ],
    "meshes" : [
        {
            "name" : "Pokeball_Obj",
            "primitives" : [
                {
                    "attributes" : {
                        "POSITION" : 0,
                        "NORMAL" : 1,
                        "TEXCOORD_0" : 2
                    },
                    "indices" : 3,
                    "material" : 0
                },
                {
                    "attributes" : {
                        "POSITION" : 4,
                        "NORMAL" : 5,
                        "TEXCOORD_0" : 6
                    },
                    "indices" : 7,
                    "material" : 1
                },
                {
                    "attributes" : {
                        "POSITION" : 8,
                        "NORMAL" : 9,
                        "TEXCOORD_0" : 10
                    },
                    "indices" : 11,
                    "material" : 2
                },
                {
                    "attributes" : {
                        "POSITION" : 12,
                        "NORMAL" : 13,
                        "TEXCOORD_0" : 14
                    },
                    "indices" : 15,
                    "material" : 3
                },
                {
                    "attributes" : {
                        "POSITION" : 16,
                        "NORMAL" : 17,
                        "TEXCOORD_0" : 18
                    },
                    "indices" : 19,
                    "material" : 4
                },
                {
                    "attributes" : {
                        "POSITION" : 20,
                        "NORMAL" : 21,
                        "TEXCOORD_0" : 22
                    },
                    "indices" : 23,
                    "material" : 5
                }
            ]
        }
    ],
    "accessors" : [
        {
            "bufferView" : 0,
            "componentType" : 5126,
            "count" : 180,
            "max" : [
                3804.22607421875,
                3618.033935546875,
                4000
            ],
            "min" : [
                -3804.22607421875,
                -3618.033935546875,
                -4000
            ],
            "type" : "VEC3"
        },
        {
            "bufferView" : 1,
            "componentType" : 5126,
            "count" : 180,
            "type" : "VEC3"
        },
        {
            "bufferView" : 2,
            "componentType" : 5126,
            "count" : 180,
            "type" : "VEC2"
        },
        {
            "bufferView" : 3,
            "componentType" : 5123,
            "count" : 240,
            "type" : "SCALAR"
        },
        {
            "bufferView" : 4,
            "componentType" : 5126,
            "count" : 210,
            "max" : [
                3000,
                3000,
                0
            ],
            "min" : [
                -3000,
                -3000,
                0
            ],
            "type" : "VEC3"
        },
        {
            "bufferView" : 5,
            "componentType" : 5126,
            "count" : 210,
            "type" : "VEC3"
        },
        {
            "bufferView" : 6,
            "componentType" : 5126,
            "count" : 210,
            "type" : "VEC2"
        },
        {
            "bufferView" : 7,
            "componentType" : 5123,
            "count" : 756,
            "type" : "SCALAR"
        },
        {
            "bufferView" : 8,
            "componentType" : 5126,
            "count" : 441,
            "max" : [
                2000,
                1700,
                -1000
            ],
            "min" : [
                -2000,
                -2300,
                -1000
            ],
            "type" : "VEC3"
        },
        {
            "bufferView" : 9,
            "componentType" : 5126,
            "count" : 441,
            "type" : "VEC3"
        },
        {
            "bufferView" : 10,
            "componentType" : 5126,
            "count" : 441,
            "type" : "VEC2"
        },
        {
            "bufferView" : 11,
            "componentType" : 5123,
            "count" : 2400,
            "type" : "SCALAR"
        },
        {
            "bufferView" : 12,
            "componentType" : 5126,
            "count" : 9960,
            "max" : [
                101.94538879394531,
                88.91029357910156,
                -63.29412841796875
            ],
            "min" : [
                -101.3049545288086,
                -101.58709716796875,
                -202.3490753173828
            ],
            "type" : "VEC3"
        },
        {
            "bufferView" : 13,
            "componentType" : 5126,
            "count" : 9960,
            "type" : "VEC3"
        },
        {
            "bufferView" : 14,
            "componentType" : 5126,
            "count" : 9960,
            "type" : "VEC2"
        },
        {
            "bufferView" : 15,
            "componentType" : 5123,
            "count" : 14772,
            "type" : "SCALAR"
        },
        {
            "bufferView" : 16,
            "componentType" : 5126,
            "count" : 15930,
            "max" : [
                102.59102630615234,
                102.4005126953125,
                1.6465400457382202
            ],
            "min" : [
                -100.65930938720703,
                -89.3205337524414,
                -162.10169982910156
            ],
            "type" : "VEC3"
        },
        {
            "bufferView" : 17,
            "componentType" : 5126,
            "count" : 15930,
            "type" : "VEC3"
        },
        {
            "bufferView" : 18,
            "componentType" : 5126,
            "count" : 15930,
            "type" : "VEC2"
        },
        {
            "bufferView" : 19,
            "componentType" : 5123,
            "count" : 23172,
            "type" : "SCALAR"
        },
        {
            "bufferView" : 20,
            "componentType" : 5126,
            "count" : 19800,
            "max" : [
                100.59284973144531,
                100.39889526367188,
                -0.3545379936695099
            ],
            "min" : [
                -99.30677032470703,
                -99.58547973632812,
                -200.34799194335938
            ],
            "type" : "VEC3"
        },
        {
            "bufferView" : 21,
            "componentType" : 5126,
            "count" : 19800,
            "type" : "VEC3"
        },
        {
            "bufferView" : 22,
            "componentType" : 5126,
            "count" : 19800,
            "type" : "VEC2"
        },
        {
            "bufferView" : 23,
            "componentType" : 5123,
            "count" : 29400,
            "type" : "SCALAR"
        }
    ],
    "bufferViews" : [
        {
            "buffer" : 0,
            "byteLength" : 2160,
            "byteOffset" : 0
        },
        {
            "buffer" : 0,
            "byteLength" : 2160,
            "byteOffset" : 2160
        },
        {
            "buffer" : 0,
            "byteLength" : 1440,
            "byteOffset" : 4320
        },
        {
            "buffer" : 0,
            "byteLength" : 480,
            "byteOffset" : 5760
        },
        {
            "buffer" : 0,
            "byteLength" : 2520,
            "byteOffset" : 6240
        },
        {
            "buffer" : 0,
            "byteLength" : 2520,
            "byteOffset" : 8760
        },
        {
            "buffer" : 0,
            "byteLength" : 1680,
            "byteOffset" : 11280
        },
        {
            "buffer" : 0,
            "byteLength" : 1512,
            "byteOffset" : 12960
        },
        {
            "buffer" : 0,
            "byteLength" : 5292,
            "byteOffset" : 14472
        },
        {
            "buffer" : 0,
            "byteLength" : 5292,
            "byteOffset" : 19764
        },
        {
            "buffer" : 0,
            "byteLength" : 3528,
            "byteOffset" : 25056
        },
        {
            "buffer" : 0,
            "byteLength" : 4800,
            "byteOffset" : 28584
        },
        {
            "buffer" : 0,
            "byteLength" : 119520,
            "byteOffset" : 33384
        },
        {
            "buffer" : 0,
            "byteLength" : 119520,
            "byteOffset" : 152904
        },
        {
            "buffer" : 0,
            "byteLength" : 79680,
            "byteOffset" : 272424
        },
        {
            "buffer" : 0,
            "byteLength" : 29544,
            "byteOffset" : 352104
        },
        {
            "buffer" : 0,
            "byteLength" : 191160,
            "byteOffset" : 381648
        },
        {
            "buffer" : 0,
            "byteLength" : 191160,
            "byteOffset" : 572808
        },
        {
            "buffer" : 0,
            "byteLength" : 127440,
            "byteOffset" : 763968
        },
        {
            "buffer" : 0,
            "byteLength" : 46344,
            "byteOffset" : 891408
        },
        {
            "buffer" : 0,
            "byteLength" : 237600,
            "byteOffset" : 937752
        },
        {
            "buffer" : 0,
            "byteLength" : 237600,
            "byteOffset" : 1175352
        },
        {
            "buffer" : 0,
            "byteLength" : 158400,
            "byteOffset" : 1412952
        },
        {
            "buffer" : 0,
            "byteLength" : 58800,
            "byteOffset" : 1571352
        }
    ],
    "buffers" : [
        {
            "byteLength" : 1630152,
            "uri" : "data:application/octet-stream;base64,"
        }
    ]
}
