{
    "asset" : {
        "generator" : "Khronos glTF Blender I/O v1.8.19",
        "version" : "2.0"
    },
    "scene" : 0,
    "scenes" : [
        {
            "name" : "Scene",
            "nodes" : [
                0
            ]
        }
    ],
    "nodes" : [
        {
            "mesh" : 0,
            "name" : "14074_WWII_Soldier_with_Flamethrower_v1_l1",
            "rotation" : [
                0.06855303794145584,
                0,
                0,
                0.9976474642753601
            ]
        }
    ],
    "materials" : [
        {
            "doubleSided" : true,
            "name" : "14074_WWII_Soldier_with_flame_thrower",
            "pbrMetallicRoughness" : {
                "baseColorTexture" : {
                    "index" : 0
                },
                "metallicFactor" : 0,
                "roughnessFactor" : 0.8999999761581421
            }
        }
    ],
    "meshes" : [
        {
            "name" : "14074_WWII_Soldier_with_Flamethrower_v1_l1",
            "primitives" : [
                {
                    "attributes" : {
                        "POSITION" : 0,
                        "NORMAL" : 1,
                        "TEXCOORD_0" : 2
                    },
                    "indices" : 3,
                    "material" : 0
                }
            ]
        }
    ],
    "textures" : [
        {
            "sampler" : 0,
            "source" : 0
        }
    ],
    "images" : [
        {
            "bufferView" : 4,
            "mimeType" : "image/jpeg",
            "name" : "14074_WWII_Soldier_with_flame_thrower_diff"
        }
    ],
    "accessors" : [
        {
            "bufferView" : 0,
            "componentType" : 5126,
            "count" : 35204,
            "max" : [
                0.5569999814033508,
                1.4803999662399292,
                0.28859999775886536
            ],
            "min" : [
                -0.43950000405311584,
                0.0003000000142492354,
                -0.3057999908924103
            ],
            "type" : "VEC3"
        },
        {
            "bufferView" : 1,
            "componentType" : 5126,
            "count" : 35204,
            "type" : "VEC3"
        },
        {
            "bufferView" : 2,
            "componentType" : 5126,
            "count" : 35204,
            "type" : "VEC2"
        },
        {
            "bufferView" : 3,
            "componentType" : 5123,
            "count" : 199824,
            "type" : "SCALAR"
        }
    ],
    "bufferViews" : [
        {
            "buffer" : 0,
            "byteLength" : 422448,
            "byteOffset" : 0
        },
        {
            "buffer" : 0,
            "byteLength" : 422448,
            "byteOffset" : 422448
        },
        {
            "buffer" : 0,
            "byteLength" : 281632,
            "byteOffset" : 844896
        },
        {
            "buffer" : 0,
            "byteLength" : 399648,
            "byteOffset" : 1126528
        },
        {
            "buffer" : 0,
            "byteLength" : 321664,
            "byteOffset" : 1526176
        }
    ],
    "samplers" : [
        {
            "magFilter" : 9729,
            "minFilter" : 9987
        }
    ],
    "buffers" : [
        {
            "byteLength" : 1847840,
            "uri" : "data:application/octet-stream;base64,"
        }
    ]
}
